<svg width="17" height="18" viewBox="0 0 17 18" fill="none" xmlns="http://www.w3.org/2000/svg">
<path d="M16.0196 0.716687C15.4223 0.613798 14.8174 0.560837 14.2113 0.558353C12.1433 0.556658 10.1184 1.14966 8.37796 2.26669C6.63308 1.16433 4.6085 0.585879 2.54463 0.60002C1.9385 0.602503 1.33363 0.655464 0.736293 0.758353C0.540632 0.792085 0.363443 0.894569 0.236637 1.04735C0.109831 1.20013 0.0417398 1.39316 0.0446262 1.59169V11.5917C0.0428415 11.7141 0.0680647 11.8355 0.118501 11.9471C0.168938 12.0586 0.243348 12.1577 0.336437 12.2373C0.429527 12.3169 0.539007 12.3749 0.657089 12.4074C0.775172 12.4398 0.898953 12.4458 1.01963 12.425C2.21381 12.2183 3.43729 12.2526 4.61801 12.5259C5.79874 12.7993 6.91281 13.3061 7.89463 14.0167L7.99463 14.075H8.08629C8.17871 14.1135 8.27784 14.1334 8.37796 14.1334C8.47808 14.1334 8.57721 14.1135 8.66963 14.075H8.76129L8.86129 14.0167C9.83626 13.2903 10.9471 12.767 12.1281 12.4778C13.309 12.1887 14.536 12.1395 15.7363 12.3334C15.857 12.3542 15.9807 12.3482 16.0988 12.3157C16.2169 12.2833 16.3264 12.2252 16.4195 12.1456C16.5126 12.0661 16.587 11.967 16.6374 11.8554C16.6879 11.7438 16.7131 11.6225 16.7113 11.5V1.50002C16.7026 1.31015 16.6293 1.12895 16.5035 0.986468C16.3777 0.843991 16.207 0.7488 16.0196 0.716687ZM7.54463 11.7917C6.00286 10.9806 4.28672 10.5573 2.54463 10.5584C2.26963 10.5584 1.99463 10.5584 1.71129 10.5584V2.22502C1.98884 2.20902 2.26708 2.20902 2.54463 2.22502C4.32245 2.22305 6.06147 2.74476 7.54463 3.72502V11.7917ZM15.0446 10.5917C14.7613 10.5917 14.4863 10.5917 14.2113 10.5917C12.4692 10.5906 10.7531 11.0139 9.21129 11.825V3.72502C10.6944 2.74476 12.4335 2.22305 14.2113 2.22502C14.4888 2.20902 14.7671 2.20902 15.0446 2.22502V10.5917ZM16.0196 14.05C15.4223 13.9471 14.8174 13.8942 14.2113 13.8917C12.1433 13.89 10.1184 14.483 8.37796 15.6C6.63756 14.483 4.61266 13.89 2.54463 13.8917C1.9385 13.8942 1.33363 13.9471 0.736293 14.05C0.627816 14.0672 0.523812 14.1057 0.430262 14.1633C0.336711 14.2208 0.255461 14.2963 0.191182 14.3854C0.126903 14.4744 0.0808641 14.5753 0.0557127 14.6822C0.0305613 14.7891 0.0267936 14.9 0.0446262 15.0084C0.0869751 15.2248 0.213368 15.4156 0.396118 15.5389C0.578868 15.6623 0.803076 15.7083 1.01963 15.6667C2.21381 15.4599 3.43729 15.4942 4.61801 15.7676C5.79874 16.0409 6.91281 16.5478 7.89463 17.2584C8.03576 17.3588 8.20471 17.4128 8.37796 17.4128C8.55121 17.4128 8.72016 17.3588 8.86129 17.2584C9.84311 16.5478 10.9572 16.0409 12.1379 15.7676C13.3186 15.4942 14.5421 15.4599 15.7363 15.6667C15.9528 15.7083 16.177 15.6623 16.3598 15.5389C16.5426 15.4156 16.6689 15.2248 16.7113 15.0084C16.7291 14.9 16.7254 14.7891 16.7002 14.6822C16.6751 14.5753 16.629 14.4744 16.5647 14.3854C16.5005 14.2963 16.4192 14.2208 16.3257 14.1633C16.2321 14.1057 16.1281 14.0672 16.0196 14.05Z" fill="#515251"/>
</svg>
