<svg width="17" height="18" viewBox="0 0 17 18" fill="none" xmlns="http://www.w3.org/2000/svg">
<path d="M14.578 9.83337C14.3946 9.83337 14.203 9.77503 14.0196 9.73337C13.6484 9.65155 13.2835 9.54294 12.928 9.40837C12.5414 9.26772 12.1164 9.27503 11.7349 9.42887C11.3533 9.58272 11.0422 9.87223 10.8613 10.2417L10.678 10.6167C9.86629 10.1652 9.12044 9.60439 8.46129 8.95003C7.80693 8.29088 7.24614 7.54503 6.79462 6.73337L7.14462 6.50003C7.51409 6.31913 7.8036 6.00797 7.95745 5.62644C8.11129 5.24491 8.1186 4.81996 7.97795 4.43337C7.84564 4.07705 7.73707 3.71236 7.65295 3.3417C7.61129 3.15837 7.57795 2.9667 7.55295 2.77503C7.45176 2.18805 7.14431 1.65648 6.68597 1.27607C6.22763 0.895646 5.64853 0.691373 5.05295 0.700032H2.55295C2.19381 0.69666 1.83816 0.77071 1.51021 0.917141C1.18226 1.06357 0.889711 1.27895 0.652478 1.5486C0.415245 1.81826 0.238898 2.13586 0.135443 2.47979C0.0319872 2.82373 0.0038521 3.18591 0.0529526 3.5417C0.496901 7.03285 2.09131 10.2766 4.58433 12.7606C7.07735 15.2445 10.3269 16.8271 13.8196 17.2584H14.1363C14.7508 17.2593 15.3441 17.0338 15.803 16.625C16.0666 16.3892 16.2772 16.1002 16.4208 15.777C16.5645 15.4537 16.6379 15.1037 16.6363 14.75V12.25C16.6261 11.6712 16.4153 11.1138 16.0399 10.6731C15.6645 10.2323 15.1478 9.93556 14.578 9.83337ZM14.9946 14.8334C14.9945 14.9517 14.9691 15.0686 14.9203 15.1764C14.8714 15.2841 14.8002 15.3803 14.7113 15.4584C14.6182 15.5388 14.5093 15.5988 14.3916 15.6347C14.2739 15.6706 14.1501 15.6815 14.028 15.6667C10.907 15.2665 8.00815 13.8388 5.78855 11.6086C3.56895 9.37845 2.15496 6.47281 1.76962 3.35003C1.75636 3.22796 1.76798 3.10447 1.80379 2.98703C1.8396 2.86958 1.89884 2.76061 1.97795 2.6667C2.05604 2.57781 2.15217 2.50657 2.25993 2.45771C2.3677 2.40886 2.48463 2.38352 2.60295 2.38337H5.10295C5.29674 2.37905 5.48597 2.44243 5.63807 2.56259C5.79017 2.68275 5.89563 2.85217 5.93629 3.0417C5.96962 3.26948 6.01129 3.49448 6.06129 3.7167C6.15755 4.15599 6.28567 4.58768 6.44462 5.00837L5.27795 5.55003C5.1782 5.5958 5.08847 5.66082 5.01392 5.74136C4.93936 5.8219 4.88145 5.91638 4.84351 6.01936C4.80557 6.12235 4.78835 6.23181 4.79283 6.34147C4.79731 6.45113 4.8234 6.55882 4.86962 6.65837C6.06895 9.22733 8.13399 11.2924 10.703 12.4917C10.9058 12.575 11.1334 12.575 11.3363 12.4917C11.4402 12.4545 11.5357 12.3971 11.6173 12.3227C11.6988 12.2483 11.7648 12.1585 11.8113 12.0584L12.328 10.8917C12.7588 11.0458 13.1984 11.1738 13.6446 11.275C13.8668 11.325 14.0918 11.3667 14.3196 11.4C14.5091 11.4407 14.6786 11.5461 14.7987 11.6982C14.9189 11.8503 14.9823 12.0396 14.978 12.2334L14.9946 14.8334Z" fill="#515251"/>
</svg>
